<?xml version="1.0" encoding="UTF-8" standalone="no"?>
<!DOCTYPE svg PUBLIC "-//W3C//DTD SVG 1.1//EN" "http://www.w3.org/Graphics/SVG/1.1/DTD/svg11.dtd">
<svg width="100%" height="100%" viewBox="0 28000 94721 33000" version="1.1" xmlns="http://www.w3.org/2000/svg" xmlns:xlink="http://www.w3.org/1999/xlink" xml:space="preserve" xmlns:serif="http://www.serif.com/" fill="currentColor" style="fill-rule:evenodd;clip-rule:evenodd;stroke-linejoin:round;stroke-miterlimit:2;">
    <g transform="matrix(-43.4449,0,0,43.4449,90070.3,30678.4)">
        <path d="M336.717,383.339C336.398,382.866 336.068,382.354 335.849,381.959C334.518,379.556 333.321,377.006 331.992,374.653C327.819,367.259 322.288,361.625 314.349,359.321C309.726,357.978 304.739,358.968 300.979,361.975C297.219,364.981 295.156,369.628 295.448,374.433C296.615,393.619 307.42,412.256 324.159,421.703C341.787,431.651 365.503,430.279 381.123,417.405C399.244,402.469 402.58,376.323 402.701,352.84L403.565,186C403.611,177.14 403.847,167.644 405.901,158.989C407.431,152.542 409.908,146.527 415.067,142.411C423.661,135.555 436.385,136.95 446.377,141.536C459.659,147.631 469.97,158.584 480.171,169.048L495.056,184.318C500.214,189.609 508.485,190.286 514.434,185.902C520.384,181.519 522.188,173.419 518.663,166.924C506.807,145.085 491.331,124.559 470.421,111.13C447.546,96.439 417.583,91.357 392.599,102.077C367.816,112.711 351.094,137.359 344.234,163.44C338.154,186.554 338.879,210.834 339.562,234.724C340.821,278.747 340.977,322.802 340.029,366.833C339.915,372.145 340.319,377.824 337.634,382.409C337.453,382.719 337.088,383.052 336.717,383.339ZM405.836,145.642L412.456,144.08C408.545,146.035 405.836,145.642 405.836,145.642Z" style="fill-rule:nonzero;"/>
    </g>
    <g transform="matrix(-1,0,0,1,91506.7,334.679)">
        <path d="M53032.9,37583.5C53032.9,37583.5 52548.3,37230.6 52466,36867.7C52612.6,36897.3 52763.4,36912.7 52913.3,36928C52984,37243.7 53032.9,37583.5 53032.9,37583.5Z"/>
    </g>
    <g transform="matrix(-43.4449,0,0,43.4449,87062.8,31013.1)">
        <path d="M1287.99,393.332C1287.83,392.812 1287.61,392.054 1287.53,391.547C1287.16,389.289 1287.14,386.912 1287.14,384.675C1287.12,307.821 1287.16,230.967 1287.23,154.114L1309.14,166.459C1312.89,168.569 1317.37,168.947 1321.41,167.494C1325.46,166.042 1328.67,162.902 1330.22,158.891L1331.28,155.057L1331.58,151.113L1330.13,144.075C1327.82,138.195 1321.68,132.48 1315.61,129.21L1272.24,105.849C1265.44,102.189 1257.63,99.567 1250.08,101.143L1244.76,102.907L1240.16,105.703L1236.53,109.111L1233.83,112.745C1230.31,118.327 1228.43,125.932 1227.76,132.705C1226.58,144.623 1225.68,156.568 1225.05,168.527C1217.93,158.444 1210.16,148.848 1201.54,139.994C1179.66,117.508 1151.92,99.952 1121.14,93.843C1111.87,92.001 1102.07,91.484 1093.11,94.52C1080.99,98.631 1071.1,109.947 1070.56,122.736C1070,135.785 1079.23,147.969 1091.11,153.397C1099.11,157.054 1108.06,157.903 1116.81,158.851C1157.2,163.232 1198.57,184.147 1214.97,221.317C1224.21,242.259 1224.89,265.844 1225.15,288.733C1225.48,318.817 1224.81,348.901 1224.13,378.98C1224.06,382.375 1223.79,386.119 1222.91,389.529C1222.64,390.577 1222.31,391.588 1221.86,392.504C1221.72,392.792 1221.43,393.229 1221.28,393.451C1220.14,393.665 1218.98,393.219 1217.8,393.038C1215.12,392.626 1212.42,392.162 1209.74,391.985C1203.01,391.539 1195.44,393.503 1190.16,397.34L1186.99,400.085L1184.15,403.69L1182,408.145L1180.89,413.167C1180.49,417.286 1181.82,421.387 1184.58,424.476C1187.33,427.565 1191.25,429.359 1195.39,429.424C1236.3,430.061 1277.23,430.186 1318.14,429.799C1322.92,429.754 1327.39,427.401 1330.13,423.482C1332.87,419.563 1333.55,414.561 1331.95,410.053C1327.4,397.202 1311.86,391.425 1298.29,392.708C1295.71,392.951 1293.01,393.335 1290.37,393.438C1289.7,393.464 1288.65,393.388 1287.99,393.332ZM1118.41,158.938L1126.62,156.452C1126.48,156.541 1126.35,156.627 1126.22,156.709C1121.82,159.478 1118.41,158.938 1118.41,158.938Z" style="fill-rule:nonzero;"/>
    </g>
    <g transform="matrix(-43.4449,0,0,43.4449,85125.4,29383.4)">
        <path d="M1450.3,35.674L1452.93,32.925L1455.05,29.618L1457.2,22.852L1457.4,18.056L1456.7,13.568L1455.22,9.345L1452.93,5.358C1449.23,0.165 1443.63,-3.33 1437.9,-6.128C1428.93,-10.509 1419.46,-14.511 1409.48,-14.787C1395.41,-15.177 1380.76,-7.049 1376.04,6.21C1371.92,17.787 1375.98,31.277 1384.38,40.241C1390.33,46.578 1398.15,50.785 1405.96,54.582L1443.2,72.68C1445.42,73.76 1448.95,76.377 1450.51,77.566C1450.11,78.461 1449.58,79.349 1449.19,80.253C1447.86,83.298 1446.87,86.322 1446.5,89.147L1446.85,96.963L1448.4,101.289L1450.92,105.197L1454.69,108.772L1458.58,111.039L1462.79,112.498C1464.44,112.914 1466.17,113.173 1467.85,113.31C1479.94,114.299 1493.11,108.983 1498.57,98.155L1500.88,91.303L1501.27,84.652C1500.91,78.838 1498.68,72.946 1495.21,68.194C1491.11,62.562 1485.34,58.393 1479.49,54.602L1450.3,35.674ZM1433.53,28.197L1433.53,35.069L1430.91,33.793C1430.99,31.609 1431.81,29.533 1433.53,28.197Z" style="fill-rule:nonzero;"/>
    </g>
    <g transform="matrix(-43.4449,0,0,43.4449,90070.3,30678.4)">
        <path d="M640.176,174.351C644.35,180.159 650.741,185.915 657.052,187.825L664.269,188.756L668.227,188.21L672.055,186.909C676.024,185.128 679.009,181.69 680.215,177.51C681.422,173.33 680.728,168.831 678.319,165.208C664.812,144.902 649.278,125.306 628.789,112.08C606.033,97.391 576.415,91.586 551.307,101.742C526.966,111.587 510.026,135.061 502.625,160.253C496.057,182.605 496.12,206.295 496.456,229.589L498.593,377.34C498.641,380.657 498.597,384.239 498.003,387.599C497.668,389.498 497.768,391.629 496.132,392.545C495.096,393.125 493.895,392.955 492.705,392.958C490.465,392.964 488.172,392.775 485.886,392.661C479.656,392.348 473.485,392.619 467.758,394.676L462.216,397.593L458.215,401.467L455.312,407.061L454.608,410.741L454.743,414.642L456.967,420.886L460.857,425.406L463.849,427.406L467.743,428.981L474.778,429.913C513.492,429.746 552.205,429.503 590.918,429.185C595.79,429.145 600.331,426.71 603.059,422.673C605.788,418.637 606.355,413.516 604.576,408.98C600.022,397.368 586.26,391.699 573.808,392.425C571.259,392.573 568.649,392.902 566.065,393.07C564.788,393.153 563.499,393.523 562.358,392.982C560.982,392.33 561.272,390.49 560.96,388.952C560.31,385.747 560.203,382.301 560.204,379.129L560.254,187.436C560.257,172.764 559.479,156.152 569.697,145.622C578.541,136.508 593.667,136.727 605.277,141.875C619.979,148.396 630.789,161.291 640.176,174.351ZM654.007,180.435L654.017,180.401C658.19,179.884 661.95,177.611 664.348,174.161C661.045,178.934 656.498,180.143 654.007,180.435ZM652.194,180.514C652.441,180.514 652.687,180.507 652.932,180.495L652.947,180.517C652.469,180.534 652.194,180.514 652.194,180.514Z" style="fill-rule:nonzero;"/>
    </g>
    <g transform="matrix(-43.4449,0,0,43.4449,90070.3,30678.4)">
        <path d="M718.338,392.319C718.24,391.936 718.364,391.469 718.313,391.045C718.101,389.274 718.105,387.447 718.106,385.689L718.186,153.637C724.886,157.236 731.394,161.193 737.672,165.485C741.071,167.808 745.283,168.611 749.298,167.701C753.313,166.791 756.767,164.249 758.832,160.687L760.585,156.745L761.445,152.473L761.366,148.315L760.546,144.614L758.535,140.138L754.866,135.308C752.146,132.446 748.577,129.921 745.216,128.186L698.013,103.82C695.705,102.628 693.242,101.516 690.748,100.859L686.79,100.162L682.056,100.26L677.923,101.23L674.239,102.896L668.725,107.304C665.54,110.743 663.15,115.537 661.697,120.107C655.084,140.908 654.624,163.098 654.511,184.925C654.169,250.538 654.483,316.154 655.453,381.761C655.489,384.193 655.504,386.768 655.161,389.227C655.014,390.277 655.279,391.473 654.476,392.132C652.96,393.376 650.772,392.756 648.665,392.768C644.795,392.79 640.827,392.545 637.116,392.65C625.714,392.975 616.305,396.586 610.548,406.039C607.782,410.583 607.666,416.261 610.245,420.914C612.825,425.566 617.702,428.477 623.022,428.537L738.624,429.855L743.787,429.398L749.063,427.829L753.801,425.104L757.202,421.758L759.261,418.437L760.631,414.251L760.885,409.688L760.028,405.455L757.238,400.22L753.7,396.749L749.779,394.469L745.192,392.994C739.201,391.692 732.566,392.012 726.111,392.406C724.262,392.519 722.436,392.627 720.683,392.582C719.989,392.564 718.891,392.405 718.338,392.319Z" style="fill-rule:nonzero;"/>
    </g>
    <path d="M17539.4,39998.3C17641.2,39916.6 17708.3,39811.3 17753.7,39693C17752.1,40074 17539.4,40641.4 17539.4,40641.4L17539.4,39998.3Z"/>
    <g transform="matrix(-43.4449,0,0,43.4449,85440.6,30734.2)">
        <path d="M1553.66,224.78C1554.56,225.502 1555.54,226.113 1556.57,226.603L1559.09,228.185L1564.88,230.196C1568.55,231.035 1572.41,231.152 1576.24,230.57C1586.6,228.996 1596.73,222.027 1601.66,212.509C1608.33,199.645 1606.74,183.799 1601.13,170.44C1587.79,138.69 1555.89,117.742 1522.55,109.094C1490.82,100.862 1456.71,102.02 1425.61,112.386C1410.01,117.589 1394.75,125.763 1385,139.017C1367.8,162.398 1372,197.01 1389.69,220.013C1405.28,240.27 1429.14,252.503 1453.34,260.734C1474.26,267.85 1496.13,272.439 1516.09,281.923C1538.03,292.353 1557.68,309.879 1565.4,332.918C1572.43,353.889 1567.59,379.751 1549.96,393.107C1532.4,406.412 1506.83,404.454 1487.41,394.038C1465.44,382.248 1449.72,361.454 1437.17,339.905C1423.16,315.844 1412.22,290.039 1397.28,266.539C1393.76,260.997 1387.01,258.439 1380.7,260.255C1374.39,262.071 1370.03,267.828 1369.99,274.394L1369.39,378.668C1369.37,383.211 1369.61,387.891 1368.05,392.158C1367.65,393.275 1367.43,394.833 1366.26,395.056C1365.06,395.285 1364.29,393.839 1363.51,392.9C1360.52,389.316 1359.2,384.68 1357.66,380.277C1356.03,375.632 1352.21,372.098 1347.45,370.847L1343.22,370.283L1338.69,370.877L1334.63,372.602L1331.53,374.956L1328.6,378.622L1326.5,383.476L1325.66,388.755L1326.07,394.073C1331.65,421.728 1359.42,445.13 1387.11,439.753C1406.39,436.009 1421.52,419.605 1427.91,401.033C1428.83,398.363 1429.59,395.656 1430.21,392.92C1441.35,405.253 1453.76,416.343 1467.71,425.326C1494.2,442.374 1526.69,451.31 1557.72,445.885C1590.39,440.172 1620.46,417.087 1630.7,385.534C1639.26,359.163 1633.45,329.278 1618.31,306.056C1604.02,284.15 1582.14,267.904 1558.25,257.248C1536.38,247.492 1512.76,242.371 1490.28,234.109C1471.06,227.042 1451.78,217 1440.52,199.894C1431.16,185.68 1429,164.952 1440.69,152.588C1448.18,144.67 1459.45,141.607 1470.27,140.222C1493.46,137.252 1520.15,143.205 1532.72,162.93C1537.78,170.872 1540.03,180.337 1540.67,189.732C1541.11,196.137 1541.48,203.124 1543.36,209.156C1545.28,215.315 1548.55,220.675 1553.66,224.78ZM1562.93,213.238L1562.93,228.04C1562.93,228.04 1558.03,214.98 1557.99,206.209C1559.04,208.934 1560.58,211.357 1562.93,213.238Z" style="fill-rule:nonzero;"/>
    </g>
    <g transform="matrix(-1,0,0,1,93235.9,0)">
        <path d="M44047.5,36359.3C43992.6,36374.5 43927.7,36396.1 43843.7,36426.9C43830.6,36431.7 43823.9,36446.2 43828.7,36459.3C43833.5,36472.4 43848,36479.2 43861.2,36474.3C43881.3,36466.9 43900.4,36460.1 43918.5,36453.7C43922.9,36459.8 43929.8,36463.7 43937.6,36464.1C44244.8,36479.2 44258.7,36485.4 44521.1,36368.8C44545.5,36368.1 44571.7,36367.1 44600,36365.9C44697.2,36361.5 44749.9,36360.5 44792.7,36341.5C44836.4,36322 44871.1,36284.3 44929.8,36202.1C44935.3,36194.4 44936,36184.4 44931.8,36176C44927.6,36167.6 44919.1,36162.3 44909.7,36162.1C44439.5,36154.1 44399.5,36189.9 44047.5,36359.3ZM44559.7,36316.9C44552.7,36308.2 44540.4,36304.9 44529.6,36309.7C44522.8,36312.7 44516.1,36315.7 44509.6,36318.6C44384.7,36322.3 44306.1,36320.5 44232.9,36326C44430.5,36233.1 44526.8,36208.5 44860,36212C44826,36257.2 44802.2,36281.9 44772.2,36295.2C44733.5,36312.4 44685.6,36311.4 44597.7,36315.4C44584.6,36315.9 44571.9,36316.5 44559.7,36316.9ZM44064.3,36407.3C44186,36374.1 44258,36373.2 44386.4,36371.5C44258.9,36422.4 44201.7,36425.9 44040.9,36418.5C44048.9,36414.7 44056.7,36411 44064.3,36407.3Z"/>
    </g>
    <g transform="matrix(-1,0,0,1,93235.9,0)">
        <path d="M44115.2,36191.1C44042.6,36202 43986.8,36212 43967.8,36219L43940.4,36233.1L43917.6,36254.5L43903.8,36278L43897.2,36301L43896.8,36330.2L43904.4,36357.7L43912.8,36371.3C43900.3,36386.6 43892.1,36405.7 43890.3,36426.8C43885.9,36481.8 43926.9,36530 43981.9,36534.5C44098,36543.9 44289.6,36590.4 44547.8,36401.7C44550.2,36399.9 44552.5,36398.2 44554.7,36396.6C44739.6,36374.3 44835.2,36340.8 44894.2,36308.1C44951.5,36276.3 44976.3,36244.2 45010.6,36216.7C45045.5,36188.7 45057.5,36140.8 45039.9,36099.6C45022.4,36058.4 44979.6,36033.9 44935.1,36039.7C44697.3,36070.5 44575,36065.5 44483.6,36065.5C44375.6,36065.5 44304.2,36071.5 44169.4,36131.4C44142.7,36143.3 44123.7,36165.4 44115.2,36191.1Z"/>
    </g>
    <g transform="matrix(-1,0,0,1,93235.9,0)">
        <path d="M45196.3,36353.5C45179.3,36309.2 45132.5,36282.1 45084.2,36291.4C45009.4,36305.7 45009.9,36300.8 44933.5,36303.2C44896.7,36304.4 44862.4,36309.3 44829.7,36316.4C44801.8,36319.1 44768.7,36322.2 44726.6,36325.5C44575.8,36337.6 44467.1,36353 44390.5,36367.3C44387.5,36367.6 44384.4,36367.9 44381.3,36368.2C44364.4,36369.9 44285.6,36385.8 44201.1,36402.1C44194.4,36400.8 44187.7,36399.9 44181,36399.9C44160.8,36399.9 44142,36405.9 44126.3,36416.2C44119.8,36417.4 44113.4,36418.6 44107.1,36419.8C44066.6,36425.4 44021.5,36432.1 43971.2,36440C43918.5,36448.4 43881.7,36496.6 43887.5,36549.6C43893.2,36602.6 43939.6,36641.7 43992.9,36638.5C44014.9,36637.2 44058.4,36630.3 44109.2,36621.3C44151.3,36615.3 44188.8,36610.3 44222.3,36606.2C44228.9,36607.4 44235.5,36608.3 44242.1,36608.3L44270.5,36605.5L44295.1,36598.1C44489.6,36578.5 44515.9,36595.5 44608,36583.7C44634.1,36580.4 44659.2,36575.1 44683.7,36568.7C44780.2,36568.9 44909.6,36558.5 45136.2,36509.2C45185,36498.6 45218.5,36453.6 45214.6,36403.8C45213.1,36385.1 45206.6,36367.9 45196.3,36353.5Z"/>
    </g>
    <g transform="matrix(-1,0,0,1,93235.9,0)">
        <path d="M44500.2,36434.2C44496.9,36434.7 44474.7,36438.3 44460.7,36439C44414.9,36441.1 44364.3,36437.2 44342.6,36436.4C44287.5,36434.4 44241.1,36477.5 44239.1,36532.7C44237.1,36587.8 44280.2,36634.1 44335.4,36636.1C44364.9,36637.2 44440.4,36642.5 44499.2,36636.5C44535.2,36632.9 44566.7,36624.3 44588.9,36613.2C44594.5,36612 44625.2,36605.5 44628,36605.1C44682.5,36596.5 44719.8,36545.3 44711.2,36490.8C44702.6,36436.3 44651.4,36399.1 44596.9,36407.7C44589,36408.9 44526.2,36421.8 44500.2,36434.2Z"/>
    </g>
    <g transform="matrix(-1,0,0,1,93235.9,0)">
        <path d="M44319.6,36554C44325.4,36602.6 44366.2,36640.9 44416.6,36642.1C44464.6,36643.2 44505.5,36610.2 44516.1,36565.3C44528.4,36543 44532,36516.3 44525,36490.6C44514.2,36451.2 44480.3,36422.3 44439.7,36417.7C44432.5,36416.9 44432.7,36417 44425.8,36416.1C44371.2,36408.3 44320.5,36446.3 44312.7,36500.9C44310.1,36519.5 44312.7,36537.8 44319.6,36554Z"/>
    </g>
    <g transform="matrix(-43.4449,0,0,43.4449,88731.6,31068.9)">
        <path d="M921.979,128.081C936.124,127.16 950.732,129.827 962.659,137.444C973.989,144.68 982.637,156.757 983.756,170.154C984.39,177.752 984.041,186.297 985.718,193.58C987.549,201.537 991.32,208.358 997.974,213.37L1003.81,216.775L1010,218.681C1013.9,219.426 1017.97,219.393 1021.99,218.618C1032.9,216.511 1043.32,208.634 1048.01,198.271C1054.4,184.126 1051.56,167.211 1044.38,153.446C1031.77,129.274 1008.06,112.358 982.549,102.735C949.119,90.124 911.612,88.597 877.268,98.449C851.153,105.941 825.342,123.182 818.512,149.477C810.873,178.885 829.688,209.641 854.554,227.102C875.6,241.881 900.385,250.08 924.984,258.436C946.485,265.739 967.869,273.098 985.287,287.306C1000.06,299.356 1011.16,316.625 1013.16,335.584C1015.01,353.173 1008.2,372.079 993.824,382.385C976.161,395.047 951.064,392.65 932.026,382.167C910.403,370.261 894.972,349.633 882.555,328.298C868.652,304.411 857.695,278.842 842.742,255.598C839.116,249.961 832.219,247.374 825.78,249.235C819.341,251.096 814.887,256.963 814.827,263.666L813.873,369.824C813.844,373.028 813.701,376.512 813.006,379.743C812.795,380.721 812.536,381.67 812.171,382.548C812.049,382.839 812.062,383.212 811.901,383.447C811.472,383.315 810.375,382.951 809.882,382.53C807.319,380.342 806.163,376.953 805.282,373.701L801.955,366.365L798.886,362.808L795.443,360.336L792.232,358.964L788.355,358.233L784.232,358.447L780.446,359.573C775.219,361.801 771.676,366.767 771.269,372.435C770.035,389.627 777.449,407.333 790.895,418.117C804.718,429.203 824.602,432.394 841.017,425.719C857.432,419.044 869.071,403.416 874.197,386.452C874.614,385.073 874.992,383.686 875.334,382.291C887.341,395.363 900.8,406.994 915.99,416.128C943.966,432.952 978.267,440.652 1009.96,432.817C1043.39,424.551 1072.55,397.398 1079.05,363.58C1085.07,332.283 1071.38,299.362 1048.8,276.867C1028.07,256.215 1000.78,243.42 973.033,234.128C955.872,228.381 938.243,223.866 921.718,216.487C907.372,210.081 893.557,201.192 884.927,188.063C877.608,176.927 874.567,162.072 880.487,150.134C887.354,136.286 903.707,129.866 919.147,128.314C918.918,128.3 918.793,128.281 918.793,128.281C918.793,128.281 929.515,123.84 929.515,123.84C926.791,126.564 924.021,127.659 921.979,128.081ZM919.147,128.314C919.652,128.345 920.665,128.353 921.979,128.081C921.357,128.122 920.736,128.169 920.116,128.223C919.793,128.252 919.471,128.282 919.147,128.314Z" style="fill-rule:nonzero;"/>
    </g>
    <g transform="matrix(-1,0,0,1,95355.5,0)">
        <path d="M33042.6,37585.7C33036.8,37569.1 33031.8,37552.9 33027.7,37537.1C33024.7,37525.2 33013.5,37517.3 33001.3,37518.2C32994.5,37518.7 32988.4,37521.9 32984.2,37526.8C32975.1,37521.5 32963.5,37522.3 32955.1,37529.4C32945,37538 32943.3,37553.1 32951.2,37563.8C32953.8,37567.3 32956.5,37570.8 32959,37574.3C32957.6,37575.1 32956.3,37576 32955,37577.1C32945.1,37585.6 32943.3,37600.2 32950.9,37610.9C32956.9,37619.3 32962.8,37627.7 32968.6,37636C32966.6,37642.2 32967,37649.3 32970.2,37655.5C32973.3,37661.4 32979,37672.3 32986.9,37687.3C32981.8,37687.4 32976.8,37689 32972.4,37692.2C32964.5,37698 32960.9,37707.7 32962.4,37716.8C32961.9,37716 32961.3,37715.1 32960.7,37714.2C32953,37702.9 32937.7,37699.8 32926.1,37707.2C32914.6,37714.6 32911.1,37729.8 32918.1,37741.5C32925.8,37754.1 32933.4,37766.7 32941,37779.2C32940.5,37785.3 32942.2,37791.5 32946.2,37796.8C32956.4,37810 32966,37822.5 32975.1,37834.4C32975.1,37834.4 32975.1,37834.4 32975.2,37834.5C32967.9,37829.5 32958.2,37828.5 32949.7,37832.7C32937.3,37838.9 32932.1,37854 32938.2,37866.5C32947.7,37885.8 32956.2,37903.5 32964.1,37919.6C32961.5,37925.7 32961.3,37932.7 32964.1,37939.3C33082.6,38219.4 33116.7,38195.8 33259.5,38353.5C33266.7,38361.5 33277.9,38363.8 33287.3,38360.2C33295.2,38369.8 33303.3,38379.6 33311.6,38389.7C33320.3,38400.3 33336,38402 33346.8,38393.4C33352,38389.3 33355.2,38383.4 33356.1,38377.2C33392.2,38406.4 33420.3,38429 33442.5,38446.8C33443.6,38447.9 33444.7,38449 33445.8,38450C33486.5,38488.9 33507.1,38504.1 33530.2,38519.2C33533.8,38522.5 33537.1,38525.6 33540.9,38529.3C33545.4,38533.6 33551,38535.9 33556.7,38536.3C33572.3,38546.5 33591.1,38559.3 33617.3,38578.9C33627.3,38586.4 33641.1,38585.4 33649.9,38577C33660.6,38587.1 33672,38597.7 33684,38608.9C33694.1,38618.2 33709.6,38617.9 33719.2,38608.2C33726.1,38601.2 33728.1,38591.3 33725.3,38582.6C33729.1,38581.3 33732.7,38579.1 33735.6,38576C33736,38576.4 33736.5,38576.8 33737,38577.2C33746.3,38585.9 33760.6,38586.2 33770.3,38578.1C33780.1,38569.9 33782.3,38555.8 33775.5,38545.1C33731.8,38476.6 33692.9,38417.4 33657.3,38365.4C33709.3,38416.5 33769.9,38473.8 33842.9,38540.3C33852.8,38549.4 33868,38549.1 33877.6,38539.7C33887.2,38530.3 33887.7,38515.1 33878.9,38505C33461.8,38028.3 33451.1,38008.1 33042.6,37585.7ZM33589,38359C33586.9,38355.7 33584.7,38352.5 33582.6,38349.5L33597.9,38368.3C33594.9,38365.2 33592,38362.1 33589,38359ZM33549.7,38309.1C33537.8,38296.5 33524.7,38284.8 33509.5,38272.8C33453.5,38210.4 33397,38144.2 33343.3,38076.5C33309.8,38029.5 33269.9,37973.4 33221.9,37905.9L33549.7,38309.1ZM32993.1,37863.1C32995.7,37867.3 32998.3,37871.4 33000.9,37875.5C33002,37878.9 33003.1,37882.2 33004.2,37885.4C33000.6,37878.2 32996.9,37870.8 32993.1,37863.1Z"/>
    </g>
    <g transform="matrix(-1,0,0,1,95355.5,0)">
        <path d="M23249.6,35995.3C23223.4,36028.4 23192.4,36067 23157.6,36109.6C23171.7,36060.1 23179.7,36030.3 23180.9,36018L23180.2,36004.7L23178,35998.8L23174.9,35994L23169.2,35988.6L23161.4,35985L23152.1,35984.1L23142.8,35986.5C23139.1,35988.2 23132,35993.3 23123.8,36004.1C23106.4,36027.2 23068.9,36088.8 23006.5,36180.4C23007.6,36177.3 23008.7,36174.3 23009.7,36171.2C23010.7,36168.3 23011.4,36165.7 23011.8,36163.5L23012.3,36155.3L23010.9,36147.8L23008.3,36142.2L23003.1,36135.7L22996.7,36131.3L22986.4,36128.2L22975.4,36128.2C22952.1,36130.8 22875.8,36158 22659.2,36216.8C22645.7,36220.5 22637.7,36234.4 22641.4,36247.8C22645.1,36261.3 22659,36269.3 22672.4,36265.6C22815,36226.9 22905.5,36200.8 22949.3,36187.9C22938.7,36212.9 22925.3,36239 22909.6,36265.7C22780.6,36391.8 22592.7,36620.9 22464.3,36782.3C22357.1,36885.5 22263.2,36968.8 22218.7,37010.4C22203.2,37024.9 22193.2,37035.1 22189.6,37039.8L22185.4,37046.8L22183.3,37054.7L22183.5,37061.3L22185,37067L22191.4,37076.3L22197.5,37080.5L22205.4,37082.9L22211.3,37083L22218.3,37081.5C22226.4,37078.7 22263.6,37054.1 22339.2,37000.5C22346.2,37002.1 22353.8,37000.7 22360,36996.2C22369.8,36988.8 22388.8,36974.7 22414.6,36954.8C22399.6,36970.6 22389.7,36981 22386,36984.9C22382.3,36988.8 22380.1,36993.6 22379.3,36998.5C22368.8,37009 22358,37019.6 22346.9,37030.6C22337.1,37040.3 22336.9,37056 22346.4,37066C22355.9,37076 22371.6,37076.5 22381.8,37067.2C22395,37055.1 22419.6,37032.4 22453.1,37000.5C22461.9,36994.7 22471.7,36988.1 22482.6,36980.7C22458.8,37008.6 22433.1,37038.7 22404.9,37071.8C22395.9,37082.3 22397.1,37098 22407.4,37107.2C22409.7,37109.2 22412.2,37110.7 22414.9,37111.8C22407.4,37120.2 22399.8,37128.7 22392,37137.5C22382.9,37147.7 22383.6,37163.4 22393.6,37172.7C22403.1,37181.6 22417.5,37181.8 22427.1,37173.7C22420.1,37181.2 22413,37188.7 22405.7,37196.4C22396.3,37206.5 22396.6,37222.3 22406.5,37231.9C22416.4,37241.5 22432.2,37241.4 22442,37231.6C22500.7,37173 22535.4,37153.1 22652.9,37012C22656.3,37010.4 22659.3,37008.1 22661.8,37005C22666.9,36998.8 22678.8,36984 22695.7,36963.2C22660.2,37010.5 22619.7,37064.4 22569,37132.6C22560.7,37143.8 22563,37159.6 22574.2,37167.9C22585.3,37176.3 22601.1,37174 22609.5,37162.9C22689.2,37057.3 22771.9,36947.4 22851,36842.3C22839.2,36862.6 22827.3,36882.9 22815.5,36903.1C22752.5,36994.1 22680,37103.4 22568,37279.5C22563.4,37286.6 22562.9,37295.2 22565.9,37302.5C22558,37314.2 22550,37326.2 22541.8,37338.5C22534.4,37349.7 22537,37364.7 22547.8,37372.8C22558.6,37380.8 22573.8,37379 22582.4,37368.6C22590.4,37358.9 22598.3,37349.4 22606,37340.1C22612.6,37339.4 22618.9,37336.3 22623.4,37330.7C22743.1,37182.1 22821.7,37084.4 22885.3,37001.7C23005.1,36851.5 23081.3,36738.3 23278,36427.8C23285.4,36416.1 23282,36400.5 23270.3,36393C23262.4,36387.9 23252.6,36387.8 23244.8,36391.9C23247,36388.6 23249.2,36385.2 23251.4,36381.9C23258.9,36370.3 23255.8,36354.8 23244.4,36347.1C23242.4,36345.8 23240.3,36344.7 23238.1,36344C23249,36323.9 23260.4,36302.9 23272.3,36280.9C23278.6,36269.3 23274.8,36254.8 23263.7,36247.6C23257.5,36243.7 23250.1,36242.7 23243.5,36244.5C23246.7,36235.1 23250.5,36226.2 23256.6,36218.6C23264.9,36208.1 23263.7,36193 23253.7,36184C23247.4,36178.4 23239,36176.5 23231.3,36178.2C23331.3,36071.6 23374.8,36024.5 23378.2,36020.1L23381.2,36014.9L23383.1,36008.2L23382.6,35998.4L23379.4,35991L23372.8,35984L23363.5,35979.9L23354.2,35979.6L23346.1,35982.3L23341.1,35985.8C23338.8,35987.8 23328.3,35998.3 23311.3,36015.8C23296.3,36031.3 23275.9,36052.4 23251.2,36078.1C23267.8,36055.7 23282.8,36035.6 23296.2,36017.7C23337,35966 23365.3,35928.7 23377.2,35912.4C23383.3,35903.9 23386.1,35898.7 23386.5,35897.8L23388.1,35891.9L23388.1,35885.1L23384.3,35874.7L23377.6,35867.7L23369,35863.7L23361.8,35863.1L23355.1,35864.3L23348.2,35867.8L23343.8,35871.8C23339.3,35876.7 23309.9,35914.4 23249.6,35995.3ZM23077.6,36180.4L23076.4,36179.1L23070.8,36175.4C23079.5,36162.4 23087.6,36150.1 23095.1,36138.7C23090,36152.5 23084.1,36166.4 23077.6,36180.4ZM23035.9,36255.1C22999.9,36297.1 22961.9,36340.8 22922.3,36385.2C22966.8,36325.7 23004.8,36272.2 23036.7,36225.7C23038.3,36224.9 23039.9,36224 23041.4,36223.3C23041.3,36227.7 23041,36233.1 23040.1,36238.1C23039.2,36243.4 23037.8,36249.1 23035.9,36255.1Z"/>
    </g>
    <g transform="matrix(-1,0,0,1,95355.5,0)">
        <path d="M23181.1,36746C23179.6,36741 23176.4,36736.4 23171.9,36733.1C23161.3,36725.4 23146.6,36727 23138,36736.9C23115.8,36762.1 23096.4,36784.5 23079.1,36804.7C23087.3,36793.2 23095.9,36781 23105,36768C23112.8,36756.8 23110.3,36741.3 23099.3,36733.2C23088.3,36725.1 23072.8,36727.2 23064.3,36737.9C23044.4,36763.4 22852.4,37008.8 22765.4,37088.3C22765.3,37088.3 22765.3,37088.4 22765.2,37088.4C22768.2,37080.1 22772.6,37071 22778.1,37061C22823.5,36977.5 22937.8,36844.5 23050.8,36656.2C23087.6,36594.8 23107.8,36559.7 23114.9,36545.1L23120,36530.6L23119.9,36522.4L23118,36516.1L23114.6,36510.6L23108.9,36505.3L23100.2,36501.5L23089.8,36501.4L23080.7,36504.9L23074.2,36510.2C23067.5,36516.9 23049.8,36540.5 23024.3,36575.4C23023.8,36575 23023.2,36574.6 23022.7,36574.3C23011,36566.8 22995.6,36570.1 22988,36581.6C22968.9,36610.4 22811.9,36848.1 22726,36955.8C22736.2,36933.1 22751.2,36906 22771.7,36875.5C22901.2,36683.3 22906.2,36688.8 23023.4,36487.9C23030.3,36476.1 23026.4,36460.8 23014.7,36453.6C23003,36446.5 22987.7,36450 22980.2,36461.6C22961.2,36491.3 22819,36713 22706.9,36850C22679,36884.1 22653.1,36912.8 22631.6,36931.5C22626.3,36936.1 22621.5,36940.1 22617.2,36943.2C22617.2,36942.5 22617.2,36941.8 22617.3,36941.1C22618.6,36924.1 22623.6,36901.4 22631,36874.8C22674.6,36717.3 22800.5,36432.8 22824.8,36363.2C22857.2,36270.2 22867.9,36170.4 22863.2,36094.9C22869,36080.1 22874.5,36065 22879.9,36049.9C22884.2,36037.8 22878.8,36024.5 22867.3,36018.8C22861.9,36016.1 22855.9,36015.5 22850.3,36016.8C22849.3,36013.6 22848.2,36010.5 22847.1,36007.6C22837.6,35983.2 22823.8,35968 22809.6,35961.8L22799.1,35958.6L22788,35957.9C22781.3,35958.3 22774.3,35960 22767,35963.6L22759,35969.3C22757,35971.2 22754.7,35973.7 22752.1,35977.1C22745.3,35985.7 22735.3,36001.7 22723.1,36023.5C22657.4,36140.1 22522.2,36429.2 22482.4,36568.1C22476.5,36589 22472.8,36606.9 22471.3,36621.1C22463.9,36635.7 22458.6,36647.4 22456,36655.3C22451.6,36668.4 22449.9,36677.6 22449.7,36683.3L22450.4,36691.9L22453,36699.7L22456.8,36705.3L22462.6,36710.4L22469.8,36713.8L22476.8,36714.9L22483.2,36714.4L22490,36712.3C22493.8,36710.7 22499,36707.4 22504.9,36702C22557.6,36653.9 22751.7,36349.9 22767.1,36325.8C22771.7,36318.5 22772.3,36309.4 22768.7,36301.7C22781.6,36277.2 22794.3,36251.9 22806.7,36225.8C22800.7,36265.4 22790.9,36306.7 22777,36346.5C22749,36427 22587.3,36791.4 22568.4,36923.5C22565.4,36944.8 22566.1,36961.5 22569.6,36972.2L22572.5,36979.3L22577.1,36986.5L22586.6,36994.8L22594.1,36998.2L22601.8,36999.8L22616,36998.8C22626.2,36996.5 22638.7,36990.2 22652.7,36979.5C22657.3,36976 22662.1,36972 22667.2,36967.5C22665,36974.3 22663.2,36980.5 22661.9,36986.1C22657.7,37003.6 22657.8,37016.9 22659.7,37025.2L22663.9,37035.8L22669.7,37043.3L22677.1,37048.5L22686,37051.4L22694.5,37051.6L22701.7,37050L22708.7,37046.9C22711.2,37045.5 22714,37043.6 22717,37041.1C22720.7,37037.9 22725.1,37033.6 22730.1,37028.2C22732.6,37029.1 22735.2,37029.5 22737.7,37029.6C22736.3,37032 22735,37034.5 22733.7,37036.9C22719.9,37062.1 22712.1,37083.7 22710.4,37101.4C22708.9,37117.6 22712,37131.4 22719.3,37143L22724.9,37149.7L22732.5,37154.6L22742,37157L22753.2,37156.2C22755,37155.8 22757.1,37155.1 22759.5,37154.1C22757,37158.2 22754.4,37162.3 22751.8,37166.6C22745.1,37177.5 22747.6,37191.7 22757.7,37199.6C22766.3,37206.5 22778.2,37206.8 22787.2,37201C22788.1,37202.5 22789.3,37204 22790.7,37205.3C22800.5,37215 22816.3,37215 22826.1,37205.4C22849.6,37182.5 22870.6,37161.6 22889.7,37142.6C22891,37146.3 22893.1,37149.8 22896.1,37152.8C22905.6,37162 22920.7,37162.4 22930.6,37153.5C22943,37142.4 22966.4,37121.5 23005.5,37083.4C23006.6,37085 23007.8,37086.5 23009.3,37087.9C23019.3,37097.2 23034.8,37097 23044.5,37087.3C23079.4,37052.4 23110.8,37023.4 23140.4,36993C23150.6,37001 23165.3,36999.9 23174.3,36990.4C23228.2,36933.6 23227.1,36934.5 23274.9,36871.6C23281.9,36862.3 23281.7,36849.6 23274.6,36840.7C23275.9,36833.7 23274.1,36826.3 23269.5,36820.5C23275.4,36810.1 23281.3,36799.2 23287.2,36787.7C23293.1,36776.5 23289.7,36762.6 23279.3,36755.4C23268.9,36748.1 23254.7,36749.7 23246.2,36759C23222.6,36784.7 23200.5,36808.6 23179.7,36830.9C23188.1,36816.5 23197,36800.7 23206.6,36783.4C23213,36772.1 23209.7,36757.7 23199,36750.3C23193.6,36746.6 23187.2,36745.2 23181.1,36746ZM22810,36066.2C22767.1,36133 22676,36275.6 22596.8,36405C22652.2,36273.1 22724.6,36123.8 22767.1,36048.3C22776,36032.5 22786.5,36016.6 22791.1,36009.8C22791.6,36010.4 22792.1,36010.9 22792.5,36011.4C22795.3,36015.2 22797.7,36020.1 22799.9,36025.8C22804.2,36036.9 22807.6,36050.5 22810,36066.2Z"/>
    </g>
    <g transform="matrix(-1,0,0,1,98607,-56.9239)">
        <path d="M12316.5,48354.8C12304.4,48359.7 12292.2,48364.9 12279.7,48370.3C12266.9,48375.9 12261,48390.8 12266.6,48403.6C12272.2,48416.4 12287.1,48422.3 12299.9,48416.7C12308,48413.2 12316,48409.8 12323.9,48406.5C12380.1,48403.1 12430.4,48399.1 12476,48394.1C12466.9,48396 12459.1,48402.9 12456.6,48412.5C12453.1,48426 12461.2,48439.8 12474.7,48443.4C12484.5,48445.9 12555,48464.2 12605.5,48469.6C12633.7,48472.7 12657,48469.9 12667.2,48463.8C12732.7,48424.5 12750.7,48408.5 12902.5,48268.9C12941.8,48257.1 12979.4,48240.9 13016.9,48217.3C13095.9,48167.4 13174.5,48083.8 13265.1,47932.7C13270.8,47923.3 13269.7,47911.3 13262.4,47903C13255.2,47894.8 13243.4,47892.1 13233.3,47896.6C12758.7,48104.2 12771.1,48123.6 12316.5,48354.8ZM13112.9,48005.3L12583.7,48275.1C12581.4,48275.5 12579.2,48276 12576.9,48276.4C12777,48169.8 12858.6,48120.1 13112.9,48005.3ZM12480.7,48393.6C12600.9,48380.2 12688,48360 12763.5,48327.9C12707.6,48377.9 12685.4,48393.9 12642.3,48419.8C12640.2,48419.9 12623.7,48420.7 12610.9,48419.3C12563.3,48414.2 12496.7,48396.8 12487.5,48394.4C12485.2,48393.8 12482.9,48393.6 12480.7,48393.6Z"/>
    </g>
    <g transform="matrix(-1,0,0,1,89442.9,167.34)">
        <path d="M78895.2,38516.4C78917.7,38406.1 78942.9,38273.3 78985.6,38067.7C78988,38056.2 78982.1,38044.8 78971.9,38039.9C78968.7,38033.2 78962.5,38028 78954.7,38026.3C78941.3,38023.3 78928,38031.6 78924.7,38044.9C78910.3,38102.9 78897.4,38155 78885.6,38202.3C78886.3,38187.4 78886.9,38172.8 78887.5,38158.6C78896.4,38127 78905.7,38093.4 78915.5,38057.7C78918.8,38045.6 78912.8,38033.2 78901.8,38028.1C78906.3,37992.5 78911.1,37954.8 78916.2,37914.7C78917.9,37901.3 78908.8,37888.9 78895.5,37886.6C78894.7,37886.4 78893.9,37886.3 78893.1,37886.3C78892.2,37875 78884,37865.7 78872.9,37863.5C78875.6,37846.3 78878.4,37828.8 78881.2,37810.8C78883.3,37797.4 78874.5,37784.7 78861.2,37782.1C78856.4,37781.1 78851.6,37781.6 78847.3,37783.2C78841.6,37731.2 78827.9,37690.3 78806.2,37663.2L78796.2,37653.9L78789.9,37650.4L78782.8,37648.2L78768.7,37647.5L78756.3,37650.9C78741.3,37657.2 78721.6,37675.6 78700.8,37706.5C78586.3,37876.4 78384.8,38460.7 78366,38968.3C78361.7,39085.3 78366.5,39155.2 78377,39187.8C78385.5,39214.4 78400.5,39224.3 78413.2,39226.3L78421.8,39226.7L78429.7,39225.2L78436.2,39222.3C78432.7,39231.8 78429.2,39241.3 78425.7,39251C78425.7,39251 78425.7,39251.1 78425.7,39251.1C78422.2,39260.6 78424.7,39270.7 78431.3,39277.5C78421.8,39310.2 78412,39344.6 78401.8,39380.8C78398.2,39393.6 78405.1,39406.9 78417.5,39411.5C78430,39416 78443.8,39410.1 78449.2,39398C78516.3,39248.2 78566.3,39132.5 78606.1,39035.1C78584,39132.2 78571.9,39190.3 78568.9,39221.4C78566.8,39242.6 78569.3,39255.4 78572.5,39261.9L78580.2,39271.9L78586.5,39276L78593.6,39278.5L78604.1,39278.9L78615.1,39275.5C78618.9,39273.7 78623.4,39270.7 78628.6,39266.4C78626.7,39273.5 78624.7,39280.6 78622.6,39287.9C78619,39301 78626.3,39314.6 78639.3,39318.8C78652.2,39322.9 78666.1,39316.1 78670.7,39303.4C78675.7,39289.9 78680.5,39276.7 78685.2,39263.8C78688.9,39268.5 78694.2,39271.9 78700.6,39273.1C78714.1,39275.5 78727.1,39266.8 78729.9,39253.3C78736.8,39219.7 78743.4,39187.7 78749.6,39157.2C78750.3,39165.7 78755.3,39173.7 78763.5,39177.8C78782.6,39187.4 78804.7,39185.5 78828.5,39169.4C78864.5,39145.1 78908.9,39080.4 78954.5,38993.2C79098.4,38717.5 79267.1,38211.9 79287,38151.9C79291.2,38139.4 79285,38125.7 79272.7,38120.6C79260.5,38115.5 79246.4,38120.8 79240.4,38132.6C79089.9,38433.6 79033.8,38552.2 78964.4,38711.2C79015.7,38534.2 79045.2,38404.6 79125,38056.6C79127.9,38043.7 79120.4,38030.7 79107.8,38026.8C79095.2,38022.9 79081.7,38029.4 79076.8,38041.6C78991.2,38257.8 78937.9,38398.5 78895.2,38516.4ZM78752.5,39143.5C78764.4,39085.5 78775.2,39032.9 78785.2,38984.8C78869.7,38744.4 78907.1,38625.3 78996,38389.6C78936.9,38637.8 78905.3,38738.7 78782.4,39131.1C78770.9,39127.5 78758.2,39132.5 78752.5,39143.5ZM78901.4,38985.6L79086,38564.1C79028.4,38713.9 78962.3,38872.3 78901.4,38985.6ZM78764.8,38577.8C78773.7,38547.4 78782.8,38515.5 78792.6,38481.4C78793.2,38479.3 78793.9,38477.2 78794.6,38475.1C78785.2,38547.7 78776.2,38613.9 78766,38686C78742.3,38787.9 78717.6,38901.9 78681.5,39077.5C78676.2,39096.2 78670.8,39115.6 78665.1,39135.8C78652.1,39160 78638,39181.6 78622.8,39200C78624.2,39192.2 78625.8,39183.4 78627.7,39173.5C78645.8,39080.6 78689.7,38900.2 78764.8,38577.8ZM78793.7,37954.9C78788.6,37975.4 78783.1,37997.5 78777.1,38021C78634.2,38328.3 78586.9,38391 78562.1,38423.7C78553.7,38434.9 78555.9,38450.7 78567,38459.2C78578.1,38467.6 78594,38465.4 78602.4,38454.3C78620,38431.2 78648.8,38393.4 78713.6,38267.6C78631,38581.1 78523.1,38963.2 78449.8,39119.1C78441.7,39136.3 78431.1,39152.9 78423.6,39164C78421.8,39157.3 78420.1,39149.2 78419.1,39141.2C78414.6,39104.5 78413.6,39048.6 78416.5,38970.2C78434.9,38473.3 78630.7,37901 78742.7,37734.7C78752.2,37720.7 78765,37707.7 78771.6,37701.5C78786.8,37724.6 78794.7,37758.4 78798.1,37800C78801.8,37844.2 78799.9,37896.7 78793.7,37954.9Z"/>
    </g>
    <g transform="matrix(-1,0,0,1,89442.9,167.34)">
        <path d="M79258.4,38443L79250.6,38441.7L79248.4,38442C79245.5,38437.7 79241.3,38434.2 79236,38432.3C79223.3,38427.7 79209.3,38433.9 79204.1,38446.3C79202.1,38451.2 79197.2,38462.9 79190.3,38479.5C79192,38464.7 79193.8,38449.2 79195.8,38432.8C79197.2,38420.6 79189.6,38409.1 79177.8,38405.6C79166,38402.1 79153.4,38407.7 79148,38418.7C79138.3,38438.2 79129,38457.2 79119.9,38475.7C79116.3,38478.5 79113.5,38482.4 79111.9,38487C79109.7,38493 79107.7,38498.9 79105.6,38504.7C79065.8,38585.5 79031.4,38655.2 79001.6,38715C79013.3,38680.9 79025.7,38642.9 79038.9,38600.5C79066.4,38538 79094.2,38470.6 79120.1,38399.2C79123.8,38389.2 79120.8,38378.1 79112.7,38371.2C79104.6,38364.4 79093.1,38363.3 79083.8,38368.6L79009.1,38411.2C78997,38418.1 78992.8,38433.6 78999.7,38445.7C79006.6,38457.8 79022.1,38462.1 79034.2,38455.1L79047.9,38447.3C79044.9,38455.1 79041.8,38462.9 79038.7,38470.7C79030.3,38472.5 79023,38478.5 79020,38487.2C79010.7,38514.6 79002.2,38539.2 78994.5,38561.8C78998.5,38547.2 79002.7,38531.7 79007.2,38515.2C79010.8,38501.9 79003.2,38488.2 78990,38484.3C78977.2,38480.5 78963.6,38487.3 78959,38499.8C78962.2,38480.5 78965.3,38459.9 78968.5,38437.8C78969.6,38430.2 78967.1,38422.8 78962.3,38417.4C78962.9,38414.3 78963.4,38411.2 78964,38408C78966.3,38394.7 78957.8,38382 78944.7,38379C78931.5,38376 78918.3,38383.9 78914.7,38396.9C78910.9,38410.9 78907.1,38424.5 78903.4,38437.8C78899.9,38432.5 78894.5,38428.6 78887.9,38427.1C78875.8,38424.3 78863.6,38430.8 78859,38442C78857,38432.9 78850.1,38425.3 78840.6,38422.9C78827.8,38419.6 78814.6,38426.7 78810.3,38439.2C78807.9,38446.2 78801.3,38465.5 78792.1,38492.8C78805.2,38387.9 78810,38306.5 78811.4,38282.8C78812.2,38269.9 78803,38258.4 78790.2,38256.4C78777.4,38254.3 78765.1,38262.3 78761.7,38274.8C78672.1,38612.2 78657,38661.6 78598.1,38910.5C78594.4,38904.3 78587.9,38899.7 78580.2,38898.6C78566.4,38896.5 78553.5,38906.1 78551.5,38919.9C78550.4,38927.2 78540.3,38995.2 78539,39044.1C78538.2,39070.3 78541.1,39091.9 78546.1,39101.5L78551.3,39109.1L78557.2,39114.1L78563.8,39117.5L78571.5,39119.2L78580.4,39118.6L78590.4,39114.5C78594.6,39112.1 78599.8,39107.8 78605.2,39100.6C78622.7,39078 78638.7,39052.1 78653.4,39023.9L78657,39025.7L78664.7,39027.3L78666.1,39029.6L78673.5,39035.9L78681.6,39039.5L78690.1,39040.6L78698.5,39039.7L78706.2,39037.3C78710.3,39035.7 78714.5,39033.2 78718.8,39029.9C78728.2,39022.6 78738.5,39009.7 78748.8,38991.9C78750.9,38998.7 78755.7,39004.6 78762.6,39007.7C78773.8,39012.9 78787.1,39009.1 78794,38998.9C78796.6,38995.1 78799.1,38991.3 78801.6,38987.6C78795.9,39003.7 78792.1,39017.2 78790.6,39027.9C78789.6,39035.7 78789.6,39042.5 78790.4,39048.4C78789.6,39051 78788.9,39053.7 78788.1,39056.4C78784.5,39068.8 78790.9,39081.9 78802.8,39086.8C78807.5,39088.7 78812.5,39089.1 78817.3,39088.2L78819.1,39089.1L78830.8,39091.1L78841.7,39089.2C78845.7,39087.8 78850.4,39085.3 78855.6,39081.2C78857.9,39083.5 78860.7,39085.4 78863.9,39086.7C78875.6,39091.6 78889.1,39087 78895.4,39076.1C78902.4,39064.1 78909,39052.6 78915.4,39041.6C78917.7,39047.6 78922.2,39052.7 78928.3,39055.6C78936.1,39059.4 78945.1,39058.7 78952.2,39054.4C78952.5,39054.6 78952.8,39054.7 78953,39054.9C78964.1,39061.1 78978.1,39058 78985.6,39047.9C79013.1,39010.8 79036.1,38979.1 79055.6,38950.9L79056.3,38951.1C79056,38952 79055.7,38952.8 79055.4,38953.7C79050.4,38966.3 79056.3,38980.5 79068.6,38986C79081,38991.5 79095.5,38986.3 79101.5,38974.2C79110.9,38955.3 79164.6,38847.9 79211.6,38737.2C79238.6,38686 79250,38652.1 79260.3,38612.2C79260.6,38611.2 79260.9,38610.2 79261.3,38609.2C79275.4,38567.3 79284.8,38530.4 79286.7,38504.1C79289.3,38493.9 79292.3,38483.2 79295.5,38471.6C79299.1,38458.7 79291.9,38445.2 79279.2,38440.9C79272,38438.5 79264.5,38439.4 79258.4,38443Z"/>
    </g>
    <g transform="matrix(-1,0,0,1,91506.7,334.679)">
        <path d="M53217.5,37154.5C53221.1,37151.7 53224.1,37148.5 53226.4,37145L53232,37132.6L53233.1,37119.3C53232.7,37112.5 53230.6,37104.4 53225.6,37095.2C53225.2,37094.4 53224.7,37093.6 53224.2,37092.7C53231.6,37090.5 53238,37084.9 53240.8,37077.1C53245.5,37064.5 53239.4,37050.4 53227,37045.2C53206.9,37036.6 53187.8,37028.5 53169.6,37020.8L53168.5,37016.9L53165.4,37011.9L53160.7,37007.4C53158.5,37005.7 53141.7,36997.9 53056,36960.2C52955,36900.5 52798.5,36820.9 52561.6,36716.9C52549.2,36711.5 52534.8,36716.7 52528.8,36728.8C52528.7,36728.9 52528.6,36729.1 52528.6,36729.2C52481.6,36708.7 52431.2,36686.6 52377.1,36662.9C52364.5,36657.4 52349.8,36663 52344,36675.5C52338.2,36688 52343.6,36702.9 52356,36708.9C52553.4,36804.3 52657.7,36854 52757.5,36898.9C52736.3,36894.9 52713.2,36891.1 52687.6,36887.4C52671.5,36883.9 52654.5,36880.3 52636.4,36876.6C52617.6,36870.1 52597.6,36863.3 52576.1,36856C52567.8,36841.4 52562.2,36831.6 52557.7,36825.1C52550,36814.2 52542.9,36809.2 52536.4,36806.5L52523.8,36803.8C52519.5,36803.6 52514.8,36804.1 52509.3,36805.5L52499.5,36810.1L52491.3,36819.2C52490.2,36821.1 52489,36823.6 52488.1,36826.7C52464,36818.8 52438.3,36810.4 52410.8,36801.5C52405.9,36799.9 52400.9,36799.9 52396.4,36801.1C52387,36797.1 52377.6,36793 52368,36788.8C52355.3,36783.3 52340.6,36789.1 52334.9,36801.7C52329.2,36814.3 52334.8,36829.2 52347.4,36835C52379.3,36849.8 52413.1,36865.2 52448.1,36880.9C52450.4,36884.7 52452.6,36888.3 52454.8,36891.9C52449.7,36901.6 52442.1,36917.4 52427.1,36944.8C52420.4,36957.1 52424.8,36972.4 52437.1,36979.1C52449.3,36985.9 52464.7,36981.4 52471.4,36969.2C52477.1,36958.8 52481.7,36950 52485.5,36942.7C52511,36984.9 52528.7,37013.2 52549.1,37039C52564,37065.2 52582,37092.5 52603.4,37120C52641,37168 52663.4,37192.9 52674,37201.4L52684,37207.7L52692.1,37210L52700.7,37209.8L52707.6,37207.5L52715.4,37201.6L52720,37194.6L52722.1,37187.9L52722.5,37181C52722.4,37179.6 52722.2,37177.7 52721.7,37175.6C52721.7,37175.6 52721.8,37175.6 52721.8,37175.6C52721.8,37175.6 52721.8,37175.7 52721.9,37175.7C52730.9,37185.4 52746,37186.4 52756.3,37178C52766.6,37169.6 52768.6,37154.7 52761,37143.9C52708.9,37069.6 52670.6,37011.6 52642.1,36966.4C52658.1,36973.4 52674.1,36980.3 52690,36987.2C52766.1,37027 52821.4,37059.9 52870.9,37087.7C52971.8,37144.4 53049.2,37180.5 53221.8,37210.3C53234.5,37212.5 53246.8,37204.8 53250.4,37192.4C53253.9,37180 53247.6,37166.9 53235.7,37162C53231.3,37160.2 53225.1,37157.6 53217.5,37154.5Z"/>
    </g>
    <g transform="matrix(-1,0,0,1,91506.7,334.679)">
        <path d="M53484.6,37434.9L53487.8,37429.8L53489.7,37423.5L53490,37417L53488.7,37410.3L53485.9,37404.6L53482.6,37400.4L53474,37394.3C53468.8,37391.9 53452.4,37389.5 53424.4,37388.4C53410.1,37387.8 53392,37387.1 53370.1,37386L53368.4,37380.9L53361.6,37371.8L53350.4,37364.9C53336,37358.9 53291.3,37350.7 53225.3,37339.5L53226.8,37333.8L53226.8,37326L53223.5,37316.8L53217,37309.1L53209.3,37304.4C53207,37303.4 53204,37302.2 53200.2,37301.2C53192.6,37299.1 53180,37296.8 53162.7,37294.2L53164.4,37291.6L53165.9,37285.6C53178.5,37284 53186.9,37282.2 53190.7,37280.7L53199.4,37275.6L53201.1,37273.6C53209.9,37272.8 53217.7,37272.1 53224.5,37271.2C53242.4,37268.9 53254.5,37265.2 53259.4,37262.4L53266.5,37256.8L53271.9,37248.3C53275.5,37239.4 53276.7,37232.5 53276.6,37227.7L53275.6,37220.6L53272.4,37212.8L53267.6,37206.5L53261.9,37202.2L53255.4,37199.2L53247.4,37197.4C53234.6,37195.7 53202.8,37201.4 53139.8,37201.4L53140.5,37196.6L53139.4,37190.2L53137.3,37185L53135.2,37182.5C53139.7,37181.1 53143.3,37179.8 53146.1,37178.6L53154.6,37173.9L53161.3,37167.7L53165.4,37160.8L53167.2,37154.5L53166.6,37142.8L53163.8,37136.1L53158.6,37129.6L53151.6,37124.4C53149.2,37123.1 53146.2,37121.7 53142.4,37120.3C53127.4,37114.8 53092.4,37108.6 53036.5,37099.3C53025.2,37094.7 53013.9,37089.8 53001.9,37087.5C52976.4,37082.8 52953,37078.6 52931.2,37074.8L52931.5,37073.6L52931.6,37066.8L52930.3,37061.1L52927.3,37054.9L52927.2,37054.7L52928.6,37051.1L52929.3,37043.7L52928.1,37036.9L52925.9,37031.7L52922.2,37026.5L52914.3,37019.9C52905.7,37014.5 52882.1,37006.9 52848,36999.3C52794.3,36987.3 52712.1,36973.1 52626.4,36959.6C52574,36946 52522.3,36932.4 52479.2,36920C52467.2,36916.5 52454.6,36922.4 52449.4,36933.5C52407.1,36927.7 52369,36922.7 52339.2,36919.2C52327.6,36917.8 52316.5,36924.6 52312.5,36935.6C52310,36942.5 52310.6,36949.8 52313.8,36956C52309.8,36958.9 52306.6,36963.1 52304.8,36968.1C52300.4,36981 52306.9,36995 52319.5,36999.9C52336.4,37006.6 52383.7,37029.7 52451.8,37056.7C52444.5,37059.5 52438.7,37065.6 52436.5,37073.6C52433,37086.4 52440,37099.7 52452.5,37104.1C52460.5,37106.9 52480.1,37113.8 52507.7,37123.1C52496.6,37124.1 52487.1,37132.4 52485.1,37143.9C52482.7,37157.5 52491.7,37170.6 52505.4,37173.1C52507.3,37173.5 52509.3,37173.8 52511.2,37174.2C52511.8,37184.9 52519.2,37194.4 52530,37197.3C52541.1,37200.2 52554.4,37204 52569.8,37208.5C52569.6,37210.7 52569.7,37212.9 52570.1,37215C52563.7,37217.8 52558.5,37223.3 52556.2,37230.4C52552.1,37243.1 52558.7,37256.8 52571.1,37261.7C52584.3,37266.8 52623.5,37282 52677.4,37299.7C52676.7,37311.1 52683.9,37321.9 52695.3,37325.4C52725,37334.5 52751,37342.4 52773.8,37349.4C52773.6,37351.5 52773.6,37353.5 52773.9,37355.6C52772.4,37357.9 52771.2,37360.6 52770.6,37363.5C52768.8,37371.1 52770.6,37378.7 52775,37384.4C52772.6,37383.9 52770.2,37383.4 52767.8,37382.8C52754.6,37379.9 52741.4,37387.9 52737.8,37401C52734.3,37414 52741.8,37427.6 52754.7,37431.6C52763.6,37434.4 52782,37440.2 52807.6,37447.6C52804.2,37451 52801.7,37455.4 52800.6,37460.4C52799.7,37462.4 52799,37464.6 52798.6,37467C52796.3,37480.5 52805.2,37493.4 52818.7,37496C52845.2,37501.2 52870.5,37505.8 52894.7,37509.9C53164.6,37576.6 53251,37550.6 53356.8,37547.5C53360.7,37547.4 53364.3,37546.4 53367.5,37544.8C53379.3,37544.3 53387.6,37543.9 53391.3,37543.7C53401,37543.2 53409.2,37537.3 53413,37529C53423.5,37528.3 53434.1,37527.5 53444.9,37526.6C53451.1,37526.2 53456.6,37523.5 53460.7,37519.5C53461,37519.4 53461.3,37519.3 53461.5,37519.2L53461.8,37519C53499.3,37518.1 53531,37514.7 53553.3,37508.9L53562,37505.6L53570.2,37499.5L53575.8,37490.4L53577.4,37481.9L53576.4,37473.7L53572.2,37465.1L53564.1,37457.5C53561.2,37455.6 53556.5,37453.2 53550,37450.9C53537.5,37446.5 53514.5,37441.1 53484.6,37434.9ZM52508.4,36992.9C52508.7,36993.1 52508.9,36993.2 52509.1,36993.3C52508,36993.1 52506.8,36992.8 52505.7,36992.5C52506.6,36992.7 52507.5,36992.8 52508.4,36992.9Z"/>
    </g>
    <g transform="matrix(-1,0,0,1,91506.7,334.679)">
        <path d="M53346.8,37533.9C53345,37525.2 53338.5,37517.8 53329.5,37515L53294.3,37504.3C53285.1,37501.4 53275.4,37504.2 53269,37510.6C53210,37506.6 53164.3,37502.3 53123.8,37497.3C53069.3,37489.5 53023.5,37482 52945.9,37467.9C52917.4,37462.6 52885.8,37456.7 52848.9,37450.1C52848.8,37450.1 52848.8,37450.1 52848.7,37450.1C52835,37447.6 52821.9,37456.8 52819.4,37470.5C52816.9,37484.2 52826,37497.3 52839.7,37499.8C52839.7,37499.9 52839.8,37499.9 52839.8,37499.9C52845.4,37500.9 52850.9,37501.9 52856.2,37502.9C52855.7,37504.2 52855.4,37505.6 52855.2,37507.1C52854.2,37513.4 52855.7,37519.5 52858.9,37524.5C52857.1,37537.7 52865.9,37550 52879,37552.7C52917.3,37560.3 52950.8,37565.9 52981.1,37569.9C52985,37573.3 52990.1,37575.4 52995.7,37575.8C53004,37576.3 53011.5,37576.8 53018.2,37577.2C53071.7,37587.9 53080.3,37586.7 53151.3,37589C53157.8,37589.2 53163.8,37587 53168.4,37583.1C53185.6,37583.7 53205.6,37584.5 53230,37585.4C53237.9,37585.7 53245.1,37582.4 53250,37576.9C53273.6,37576.7 53299.5,37576.3 53328.2,37575.8C53341.4,37575.6 53352.2,37565.2 53353,37552C53353.4,37545.2 53351,37538.7 53346.8,37533.9Z"/>
    </g>
    <g transform="matrix(-1,0,0,1,91506.7,334.679)">
        <path d="M53085.1,37537C53081.8,37533.4 53077.4,37530.8 53072.4,37529.6C53070.8,37529.3 53069.2,37528.9 53067.6,37528.5C53067.1,37527.9 53066.6,37527.2 53066.1,37526.5C53058.3,37516.1 53044.1,37513.3 53033.2,37519.6C53025,37517.4 53019.8,37515.9 53015.9,37515.3L53006,37515L52998.6,37516.4L52991.9,37519.1C52989.7,37520.2 52987.4,37521.7 52984.9,37523.6L52979.1,37529.2L52974.7,37537.1L52973.3,37543.4L52973.5,37550.4L52977.7,37561L52985.7,37569.1C52988.7,37571.1 52994.2,37573.9 53003.8,37576.4C53016.6,37579.6 53041.6,37583.6 53087.5,37588.5C53101.1,37590 53113.4,37580.4 53115.2,37566.8C53117.1,37553.3 53107.8,37540.7 53094.3,37538.5C53090.7,37537.9 53087.7,37537.4 53085.1,37537Z"/>
    </g>
    <g transform="matrix(-1,0,0,1,91506.7,334.679)">
        <path d="M52870.6,37364.2C52871.6,37361.7 52872.3,37359 52872.5,37356.1C52873.2,37345.6 52867.4,37336.1 52858.4,37331.8C52858.4,37331.6 52858.5,37331.4 52858.6,37331.2C52861.7,37319.7 52856.5,37307.6 52846,37302.1L52793.2,37274.2C52780.9,37267.7 52765.6,37272.4 52759.1,37284.7C52757.5,37287.7 52756.6,37290.7 52756.3,37293.8C52692.7,37288.7 52661.8,37284.1 52648.5,37282.9C52643.1,37282.4 52639.3,37282.5 52636.9,37282.7L52627.5,37285.2L52620.8,37289.6L52616.3,37294.9L52613.6,37300.5L52612.3,37306.3L52613.2,37316.3L52615.8,37322.5L52619.9,37328.5C52622.5,37331.7 52631.8,37338.6 52648.4,37343.7C52650.4,37344.3 52652.4,37344.9 52654.6,37345.5C52658,37351 52663.5,37355.2 52670.2,37356.8C52676.8,37358.4 52682.8,37359.9 52688.4,37361.2C52691.1,37371 52699.7,37378.6 52710.4,37379.6C52727.3,37381.2 52741.9,37382.8 52754.7,37384.4L52754.5,37399.3L52749.6,37398.8L52769.2,37402.8C52775.2,37404 52781.1,37402.9 52786.1,37400.2L52847.9,37401.9C52860.9,37402.3 52872.1,37392.6 52873.7,37379.6C52874.3,37374.1 52873.1,37368.8 52870.6,37364.2Z"/>
    </g>
    <g transform="matrix(-1,0,0,1,91506.7,334.679)">
        <path d="M53081.6,37534.9L53081.6,37534.4C53069.2,37532.8 53061.6,37531.7 53055.2,37531.1L53027.2,37525.6C53015.1,37523.1 53003.3,37529.8 52998.9,37540.8C52995.1,37545.2 52993,37551 52993.1,37557.2C52993.2,37570.8 53004,37581.7 53017.6,37582.2L53023.4,37582.3C53026,37584 53029.1,37585.2 53032.3,37585.7L53035,37587.4C53038.9,37588.9 53046.5,37590.5 53062.8,37587.8C53070.5,37589.9 53078.9,37588.2 53085.4,37582.9C53094.5,37579.2 53100.9,37570.3 53101.1,37559.9C53101.3,37547.8 53093,37537.6 53081.6,37534.9Z"/>
    </g>
    <g transform="matrix(-1,0,0,1,90725.8,55.7798)">
        <path d="M68117.2,30517.7C68121.2,30485.2 68123.4,30455.9 68123.1,30431.3L68144.4,30396C68151.4,30384.5 68148,30369.5 68136.8,30362C68128.5,30356.4 68118.1,30356.4 68109.9,30361.2C68108.6,30358.8 68107.3,30356.6 68105.9,30354.7L68100.8,30348.9L68093,30343.3L68085.9,30340.6L68075.6,30339.8L68066.1,30342.1L68057.4,30347.2C68054.6,30349.4 68051.6,30352.3 68048.5,30356.4C68045.2,30360.6 68041.5,30366.7 68037.5,30374.9C68032.7,30374.8 68028.1,30375.9 68024.1,30378.2C68034.9,30343.8 68046.9,30305.3 68060.7,30261.2C68064.8,30248.1 68057.7,30234.1 68044.6,30229.7C68031.6,30225.3 68017.5,30232.1 68012.8,30245.1C68008.8,30256 68005,30266.5 68001.4,30276.7C68000.3,30267.3 67994.1,30259.1 67984.8,30255.7C67972.9,30251.5 67959.7,30256.6 67953.8,30267.8C67939.8,30294.7 67935.9,30318.2 67931,30346C67921.8,30398.8 67906.3,30468.6 67780.2,30623.5C67714.5,30676.2 67627.1,30745.4 67507.2,30835.7C67497.4,30843.1 67494.3,30856.5 67499.9,30867.4C67505.5,30878.4 67518.1,30883.7 67529.8,30880.1C67534.3,30878.7 67542.4,30876.2 67553.6,30872.7C67549.4,30877.6 67545.1,30882.5 67540.9,30887.5C67532.5,30897.3 67532.9,30911.7 67541.6,30921.1C67550.3,30930.5 67564.7,30931.9 67575.1,30924.3C67587.8,30914.9 67643.1,30874.2 67712.9,30821.7C67722.1,30818.7 67731.4,30815.6 67740.8,30812.5C67696.8,30875.3 67641.3,30950.2 67567.5,31058.3C67559.9,31069.4 67562.3,31084.5 67573.1,31092.7C67583.8,31100.8 67599.1,31099.1 67607.7,31088.7C67709,30967.8 67773,30890 67825.1,30824.1C67824.2,30827.4 67823.2,30830.7 67822.3,30834.1C67818.8,30846.3 67824.9,30859.1 67836.6,30864.1C67843.3,30867 67850.7,30866.8 67857,30864C67851.6,30896.7 67845.8,30932.9 67839.2,30973.7C67837.2,30986.2 67844.8,30998.3 67856.9,31001.9C67869.1,31005.6 67882.1,30999.6 67887.3,30988C67887.4,30987.7 67887.5,30987.5 67887.6,30987.2C67886,31007.5 67884.2,31029.4 67882.1,31053.1C67881,31065.6 67889.3,31077.1 67901.6,31079.9C67905,31080.7 67908.4,31080.8 67911.6,31080.2C67924.2,31082.4 67936.5,31074.8 67940.1,31062.5C67941.1,31059.2 67942.1,31055.9 67943,31052.7C67945.4,31062.3 67953.2,31069.9 67963.4,31071.6C67976,31073.7 67988.2,31066.1 67991.9,31053.8C68000.4,31024.8 68051.4,30852.3 68087.1,30686.8C68116.2,30674.6 68142,30662.9 68163.1,30652.1C68195.4,30635.5 68217.3,30619.8 68226.2,30607.9L68232,30598L68234.4,30589.2L68234.6,30580.6L68232.4,30571.8L68225.8,30560.8C68222.8,30557.1 68218.7,30553.3 68213.5,30549.8C68200.4,30540.7 68177.7,30532.2 68150.1,30525.1C68139.8,30522.5 68128.7,30520 68117.2,30517.7ZM68099.5,30626.4C68103.4,30606.4 68106.9,30586.7 68110,30567.8C68119.6,30569.8 68128.9,30571.9 68137.6,30574.1C68152.1,30577.8 68165,30581.8 68175,30586.2C68170.7,30589.4 68165.5,30593 68160.3,30596C68144.4,30605.3 68123.7,30615.6 68099.5,30626.4ZM67847.2,30634.4C67841.8,30646.3 67836.2,30657.8 67830.4,30669C67809,30685.7 67787.1,30702.4 67765.6,30718.8C67773.3,30710.1 67781,30701.3 67788.6,30692.4C67798.3,30681 67807.5,30670 67816.3,30659.3C67827.2,30650.6 67837.5,30642.3 67847.2,30634.4Z"/>
    </g>
    <g transform="matrix(-43.4449,0,0,43.4449,84157.6,30845.8)">
        <path d="M1669.71,313.931C1683.87,324.992 1700.78,330.039 1718.64,333.077C1733.66,335.633 1749.38,336.73 1764.05,340.405C1801.8,349.864 1833.56,380.585 1843.87,418.112C1854.15,455.538 1842.53,498.25 1814.41,525.009C1800,538.72 1782.12,548.214 1763.86,556.112C1742.68,565.282 1732.73,594.007 1743.7,614.316C1754.68,634.626 1784.16,642.037 1803.44,629.334C1810.23,624.858 1815.44,618.385 1820.14,611.746C1889.83,513.303 1917.21,385.936 1894.14,267.552C1887.47,233.32 1876.43,199.353 1856.41,170.793C1835.31,140.687 1803.37,117.073 1767.06,111.292C1724.77,104.558 1679.59,123.89 1654.64,158.691C1629.83,193.3 1625.79,241.491 1643.81,280.075C1649.88,293.069 1658.4,305.104 1669.71,313.931ZM1705.34,178.028C1707.85,171.855 1711.24,165.962 1715.89,161.187C1730.92,145.768 1756.53,145.18 1776.04,154.276C1798.27,164.636 1814.16,185.1 1826.08,206.526C1850.97,251.233 1860.96,302.447 1862.24,353.921C1857.23,344.39 1850.88,335.772 1842.57,328.746C1826.56,315.213 1806.33,309.899 1785.39,305.837C1768.62,302.587 1751.34,300.267 1736.86,291.792C1715,279.002 1703.75,253.24 1700.38,228.144C1698.11,211.316 1698.92,193.749 1705.34,178.028ZM1691.63,187.238L1702.1,182.903C1700.76,184.238 1691.63,187.238 1691.63,187.238Z" style="fill-rule:nonzero;"/>
    </g>
    <g transform="matrix(-43.4449,0,0,43.4449,91074.3,30232.2)">
        <path d="M238.578,403.063C271.744,377.182 293.293,337.764 300.311,296.284C310.837,234.073 287.41,166.174 237.947,127.002C187.803,87.29 112.225,81.249 58.543,116.029C28.771,135.318 6.702,165.548 -4.776,199.113C-16.014,231.974 -17.383,267.833 -10.962,301.964C-8.472,315.204 -4.821,328.256 0.448,340.655C18.97,384.237 58.329,418.446 104.115,430.533C149.949,442.632 201.207,432.226 238.578,403.063ZM179.674,391.827C159.526,402.781 134.286,403.593 113.276,394.401C89.98,384.21 72.801,362.924 63.187,339.383C52.909,314.214 50.48,286.481 51.196,259.304C51.979,229.532 56.627,199.066 71.421,173.218C85.07,149.37 108.727,129.822 136.094,127.354C168.989,124.388 200.218,146.88 216.341,175.706C233.833,206.979 236.586,244.445 234.018,280.186C232.414,302.502 228.795,324.961 219.786,345.441C211.404,364.496 197.962,381.885 179.674,391.827Z" style="fill-rule:nonzero;"/>
    </g>
</svg>
